<?xml version="1.0" encoding="UTF-8" standalone="no"?>
<svg
   xmlns:dc="http://purl.org/dc/elements/1.1/"
   xmlns:cc="http://creativecommons.org/ns#"
   xmlns:rdf="http://www.w3.org/1999/02/22-rdf-syntax-ns#"
   xmlns:svg="http://www.w3.org/2000/svg"
   xmlns="http://www.w3.org/2000/svg"
   xmlns:sodipodi="http://sodipodi.sourceforge.net/DTD/sodipodi-0.dtd"
   xmlns:inkscape="http://www.inkscape.org/namespaces/inkscape"
   sodipodi:docname="li.svg"
   inkscape:version="1.0 (4035a4f, 2020-05-01)"
   id="svg8"
   version="1.1"
   viewBox="0 0 223.82318 190.37794"
   height="190.37794mm"
   width="223.82318mm">
  <defs
     id="defs2" />
  <sodipodi:namedview
     inkscape:window-maximized="0"
     inkscape:window-y="23"
     inkscape:window-x="1920"
     inkscape:window-height="1035"
     inkscape:window-width="1920"
     fit-margin-bottom="0"
     fit-margin-right="0"
     fit-margin-left="0"
     fit-margin-top="0"
     showgrid="false"
     inkscape:document-rotation="0"
     inkscape:current-layer="layer1"
     inkscape:document-units="mm"
     inkscape:cy="622.62649"
     inkscape:cx="474.4015"
     inkscape:zoom="0.35"
     inkscape:pageshadow="2"
     inkscape:pageopacity="0.0"
     borderopacity="1.0"
     bordercolor="#666666"
     pagecolor="#ffffff"
     id="base" />
  <metadata
     id="metadata5">
    <rdf:RDF>
      <cc:Work
         rdf:about="">
        <dc:format>image/svg+xml</dc:format>
        <dc:type
           rdf:resource="http://purl.org/dc/dcmitype/StillImage" />
        <dc:title></dc:title>
      </cc:Work>
    </rdf:RDF>
  </metadata>
  <g
     transform="translate(19.685397,16.569926)"
     id="layer1"
     inkscape:groupmode="layer"
     inkscape:label="Layer 1">
    <g
       transform="matrix(0.03527778,0,0,-0.03527778,-19.667758,173.83239)"
       fill="#000000"
       stroke="none"
       id="g18">
      <path
         d="M 283,5386 C 147,5343 36,5219 10,5079 -4,5009 -4,432 10,361 33,240 123,126 237,72 l 58,-27 h 2390 2390 l 58,27 c 114,54 204,168 227,289 14,72 14,4648 0,4720 -23,120 -113,233 -227,287 l -58,27 -2375,2 c -1944,1 -2383,-1 -2417,-11 z m 1109,-778 c 94,-47 176,-130 221,-225 30,-64 32,-74 32,-184 0,-113 -1,-116 -38,-191 -202,-410 -791,-317 -857,135 -24,165 69,357 216,443 90,53 139,65 250,62 93,-3 107,-6 176,-40 z M 3776,3439 c 446,-49 681,-286 759,-764 27,-162 35,-472 28,-1162 l -6,-673 h -388 -388 l -3,768 c -4,750 -4,769 -25,844 -42,147 -101,226 -206,274 -57,27 -71,29 -182,29 -139,0 -205,-16 -281,-68 -91,-62 -143,-153 -181,-312 -14,-61 -17,-165 -20,-802 l -4,-733 h -390 -389 v 1270 1270 h 375 375 v -170 c 0,-181 7,-202 43,-141 36,61 110,142 180,197 197,154 409,206 703,173 z M 1590,2110 V 840 H 1200 810 v 1270 1270 h 390 390 z"
         id="path12" />
      <path
         d="m 5863,726 c -65,-21 -128,-62 -167,-107 -146,-171 -115,-429 67,-553 271,-183 628,44 576,366 -20,124 -95,223 -209,276 -67,31 -199,40 -267,18 z m 205,-51 c 69,-21 147,-86 186,-155 28,-50 31,-63 31,-145 0,-75 -4,-98 -24,-139 C 6185,81 6000,12 5848,82 c -197,91 -251,339 -109,501 82,93 207,128 329,92 z"
         id="path14" />
      <path
         d="M 5840,370 V 170 h 30 30 v 85 85 h 33 c 29,0 36,-7 85,-85 51,-81 55,-85 89,-85 43,0 42,3 -27,105 -48,71 -49,75 -27,75 13,0 35,13 50,28 22,22 27,38 27,76 0,95 -33,116 -185,116 h -105 z m 211,121 c 24,-30 24,-46 -1,-71 -16,-16 -33,-20 -85,-20 h -65 v 61 61 l 66,-4 c 55,-3 70,-8 85,-27 z"
         id="path16" />
    </g>
  </g>
</svg>
